<svg xmlns="http://www.w3.org/2000/svg" viewBox="0 0 24 24" width="24" height="24" fill="currentColor">
  <!-- Latin Cross on Steeple -->
  <path d="M11 1h2v2h2v1.5h-2V6h-2V4.5H9V3h2V1z"/>
  <!-- Church Roof & Belfry -->
  <path d="M12 5.2L4 10.8v1.6l1.5-1V21h13V11.4l1.5 1v-1.6L12 5.2zM8.5 12.5a1 1 0 0 1 1-1h.2a1 1 0 0 1 1 1v2.5a.8.8 0 0 1-.8.8h-.6a.8.8 0 0 1-.8-.8v-2.5zm4.8 7.3h-2.6v-4.2a1.3 1.3 0 0 1 1.3-1.3 1.3 1.3 0 0 1 1.3 1.3v4.2zm2.2-4.8a.8.8 0 0 1-.8.8h-.6a.8.8 0 0 1-.8-.8v-2.5a1 1 0 0 1 1-1h.2a1 1 0 0 1 1 1v2.5zM12 8a1.2 1.2 0 1 1 0 2.4 1.2 1.2 0 0 1 0-2.4z"/>
</svg>
